<?xml version="1.0" encoding="UTF-8"?>
<svg id="Layer_1" data-name="Layer 1" xmlns="http://www.w3.org/2000/svg" viewBox="0 0 680 350">
  <defs>
    <style>
      .cls-1 {
        fill: #fff;
      }

      .cls-1, .cls-2 {
        stroke-width: 0px;
      }

      .cls-2 {
        fill: #00f097;
      }
    </style>
  </defs>
  <g>
    <path class="cls-1" d="m322.5,175v140h-34.5v-139.5c0-58.27-47.23-105.5-105.5-105.5s-105.5,47.23-105.5,105.5v139.5h-34.5v-140c0-77.32,62.68-140,140-140s140,62.68,140,140Z"/>
    <path class="cls-2" d="m497.5,35h140v34.5h-139.5c-58.27,0-105.5,47.23-105.5,105.5s47.23,105.5,105.5,105.5h139.5v34.5h-140c-77.32,0-140-62.68-140-140s62.68-140,140-140Z"/>
  </g>
  <g id="R">
    <path class="cls-1" d="m48.89,34.89c-7.03,0-12.72,5.7-12.72,12.72s5.7,12.72,12.72,12.72,12.72-5.7,12.72-12.72-5.7-12.72-12.72-12.72Zm0,24.81c-6.67,0-12.08-5.41-12.08-12.08s5.41-12.08,12.08-12.08,12.08,5.41,12.08,12.08-5.41,12.08-12.08,12.08Z"/>
    <path class="cls-1" d="m52.39,54.84l-4.96-6.12h-2.35v6.12h-1.28v-14.46h5.66c1.21,0,2.23.4,3.04,1.2.81.8,1.22,1.79,1.22,2.99s-.4,2.17-1.21,2.96c-.81.8-1.82,1.19-3.02,1.19h-.48l4.99,6.12h-1.6Zm-7.32-13.24v5.99h4.36c.84,0,1.54-.28,2.11-.85.57-.57.85-1.28.85-2.14s-.28-1.57-.85-2.14c-.57-.57-1.27-.85-2.11-.85h-4.36Z"/>
  </g>
</svg>